<svg xmlns="http://www.w3.org/2000/svg" width="2665" height="920" viewBox="0 0 2665 920">
  <defs>
    <style>
      .cls-1 {
        fill: #252526;
      }

      .cls-1, .cls-2 {
        fill-rule: evenodd;
      }

      .cls-2 {
        fill: #fe434c;
      }
    </style>
  </defs>
  <path id="bandup" class="cls-1" d="M854.35,654.247q32.823-20.479,51.362-58.838t18.529-91.671q0-53.3-18.529-92-18.529-38.673-51.362-59.488-32.837-20.8-75.742-20.805-33.157,0-61.113,13.979t-42.26,37.383V189.067H577.063V667.575h96.872V620.114q14.292,25.356,42.259,39.984,27.947,14.63,62.414,14.629Q821.519,674.727,854.35,654.247ZM694.089,576.88q-20.814-23.726-20.8-74.442,0-50.056,20.8-73.467t55.263-23.405q33.8,0,54.937,23.73,21.12,23.74,21.13,74.442,0,50.072-21.13,73.467t-54.937,23.4Q714.884,600.61,694.089,576.88ZM1103.36,657.5a83.241,83.241,0,0,0,30.88-39.334v49.411h95.57V473.831q0-70.215-33.81-106.3t-109.22-36.084a270.173,270.173,0,0,0-81.27,12.028q-38.37,12.038-65.015,28.281L967.8,439.374q31.846-17.555,59.809-25.031t49.42-7.477q31.2,0,43.88,12.678t12.68,40.634v12.353h-16.91q-66.315,0-107.92,9.1t-61.439,30.232Q927.482,533,927.492,568.753q0,26.01,13.653,50.061t39.984,39.009q26.331,14.948,65.341,14.953Q1081.57,672.776,1103.36,657.5Zm-67.62-67.29a44.781,44.781,0,0,1-10.73-29.257q0-22.751,21.46-31.207,18.84-9.1,87.12-9.1v11.7q0,29.256-17.23,50.061t-48.44,20.805Q1046.47,603.211,1035.74,590.208Zm318.9,77.367V482.933q0-34.452,19.5-54.937t52.01-20.479q25.995,0,39.01,14.953t13.01,50.711V667.575h98.17V468.63q0-70.215-28.93-103.7-28.95-33.477-86.8-33.483-74.115,0-109.22,56.563l-5.85-50.061h-94.28q1.95,21.454,3.58,43.235t1.63,42.584V667.575h98.17Zm442.1-7.152q27.945-14.292,42.26-38.358v45.51h96.87V189.067H1837.7V381.511q-14.97-23.406-42.59-36.734a136.731,136.731,0,0,0-60.14-13.328q-43.56,0-76.39,20.48t-51.04,58.838q-18.195,38.368-18.2,91.671,0,53.971,18.53,92.321,18.525,38.368,51.36,59.163,32.82,20.8,75.74,20.8Q1768.78,674.727,1796.74,660.423Zm-87.45-83.543q-21.135-23.726-21.13-74.442,0-50.056,21.13-73.467t54.94-23.405q33.8,0,54.61,23.405t20.81,73.467q0,50.711-20.81,74.442t-54.61,23.73Q1730.42,600.61,1709.29,576.88Zm486.64,38.683v52.012h63.71V339.9h-65.66V525.843q0,42.911-24.06,68.916t-63.06,26q-35.115,0-51.69-19.179T2038.59,540.8V339.9h-65.66V542.1q0,131.334,118.32,131.329,70.86,0,104.68-57.863h0Zm159.93,192.444V612.963q14.295,28.615,43.24,44.535,28.92,15.923,65.99,15.928,64.995,0,104.67-45.185,39.645-45.18,39.66-124.5,0-52.662-17.88-90.695t-50.71-58.513q-32.835-20.479-75.74-20.48-38.37,0-67.94,16.9-29.595,16.914-43.24,46.81l-5.2-57.863H2285q1.95,20.16,3.57,39.984,1.62,19.841,1.63,38.684V808.007h65.66Zm24.38-215.849q-25.68-29.9-25.68-88.42t25.68-88.1q25.68-29.575,68.59-29.581t68.59,29.581q25.68,29.592,25.69,88.1t-25.69,88.42q-25.68,29.912-68.59,29.907T2380.24,592.158Z"/>
  <path id="_copia_2" data-name="&amp; copia 2" class="cls-2" d="M664.7,757.2c0,12.822-2.748,93.415-94.331,93.415-64.108,0-126.385-44.876-174.008-113.563C510.843,671.109,618.911,567.62,618.911,502.6c0-27.475-40.3-52.2-40.3-36.634,0,65.94-96.162,174.924-199.651,243.612-35.718-58.613-60.445-131.88-69.6-208.81C450.4,372.547,628.069,233.341,628.069,147.253,628.069,80.4,572.2,33.689,502.6,33.689c-101.657,0-210.641,138.291-226.211,358.091C170.153,494.353,73.99,596.926,73.99,662.866c0,91.584,67.772,136.459,141.039,136.459,42.128,0,93.415-17.4,146.533-43.96C421.091,842.37,500.768,886.33,566.708,886.33c121.806,0,142.87-80.594,142.87-99.826C709.578,758.113,664.7,725.143,664.7,757.2ZM509.011,60.248c129.132,0-34.8,142.87-196.9,296.73C335,189.381,421.091,60.248,509.011,60.248ZM217.776,772.766c-33.886,0-76.014-25.643-76.014-55.866,0-48.539,60.445-115.394,138.291-188.661,10.074,80.593,33.886,148.365,65.024,202.4C300.2,756.281,255.325,772.766,217.776,772.766Z"/>
</svg>
