<svg xmlns="http://www.w3.org/2000/svg" width="2665" height="1160" viewBox="0 0 2665 1160">
  <defs>
    <style>
      .cls-1 {
        fill: #212832;
      }

      .cls-1, .cls-2 {
        fill-rule: evenodd;
      }

      .cls-2 {
        fill: #fe434c;
      }
    </style>
  </defs>
  <path id="B_UP_copia" data-name="B  UP copia" class="cls-1" d="M442.048,934.283q126.857,0,198.959-56.923t72.1-158.842q0-69.375-36.322-115.472-36.339-46.071-103.546-64.512,56.364-21.677,87.824-65.6,31.436-43.913,31.443-104.63,0-92.144-68.307-145.289-68.307-53.111-194.08-53.128H77.741V934.283H442.048Zm-202.754-639.7H399.762q129.017,0,129.025,94.329,0,95.421-129.025,95.413H239.294V294.579Zm0,314.431H421.447q62.87,0,96.5,23.311,33.594,23.328,33.611,76.439,0,53.136-33.611,76.439-33.621,23.329-96.5,23.312H239.294V609.01Zm1638.116,5.421V169.89H1710.43V615.515q0,187.592-163.72,187.574-84.57,0-124.15-47.164t-39.57-140.41V169.89H1213.85V614.431q0,331.779,332.86,331.779,330.69,0,330.7-331.779h0Zm264.55,319.852V637.2h187.58q127.92,0,195.16-62.886,67.215-62.87,67.22-171.311,0-107.34-67.22-170.226-67.245-62.869-195.16-62.887H1972.82V934.283h169.14Zm0-633.2h165.89q60.705,0,90.53,26.564Q2428.2,354.23,2428.2,403q0,49.884-29.82,76.439-29.82,26.582-90.53,26.564H2141.96V301.084Z"/>
  <path id="_copia" data-name="&amp; copia" class="cls-2" d="M1348.43,934.73c0,15.968-3.42,116.34-117.48,116.34-79.84,0-157.39-55.891-216.7-141.432,142.57-82.121,277.15-211,277.15-291.983,0-34.217-50.18-65.012-50.18-45.623,0,82.12-119.76,217.847-248.645,303.389-44.481-73-75.276-164.241-86.682-260.048C1081.54,455.7,1302.81,282.33,1302.81,175.118c0-83.261-69.58-141.429-156.26-141.429-126.6,0-262.328,172.225-281.717,445.959-132.3,127.743-252.064,255.485-252.064,337.6,0,114.056,84.4,169.944,175.646,169.944,52.466,0,116.337-21.671,182.49-54.747,74.135,108.351,173.365,163.1,255.485,163.1,151.69,0,177.93-100.371,177.93-124.322C1404.32,935.87,1348.43,894.81,1348.43,934.73ZM1154.53,66.765c160.82,0-43.34,177.927-245.215,369.541C937.829,227.583,1045.04,66.765,1154.53,66.765ZM791.837,954.119c-42.2,0-94.666-31.935-94.666-69.574,0-60.449,75.277-143.71,172.224-234.955,12.546,100.369,42.2,184.771,80.98,252.064C894.487,933.589,838.6,954.119,791.837,954.119Z"/>
</svg>
